<svg version="1.1" id="Layer_1" xmlns="http://www.w3.org/2000/svg" x="0" y="0" viewBox="0 0 1755 344.6" xml:space="preserve"><style>.st0{fill:#fff}</style><path class="st0" d="M421.9 66.9l-18.1-18.1c-4-4-9.4-6.2-15-6.2h-31.1c-11.3 0-22.1 4.5-30.1 12.4L139.5 243.1c-6.6 6.6-17.3 6.5-23.9-.1-5.4-5.5-6.5-13.9-2.5-20.5l31.5-52.5h14.9c5.9 0 10.6-4.8 10.6-10.6v-10.6c0-5.9-4.8-10.6-10.6-10.6H10.6C4.7 138.2 0 143 0 148.8v10.6c0 5.6 4.5 10.3 10.1 10.5C5 191.6 0 217 0 233.8c0 40.8 23.2 75.8 56.9 93.6C72 335.8 89 340.1 106.3 340c51.2 0 77.3-34.1 85-42.5L354.9 93c4-5 10.1-8 16.6-8h42.9c9.4 0 14.2-11.4 7.5-18.1zM58.4 260.3c-8.8 0-15.9-7.1-15.9-15.9s7.1-15.9 15.9-15.9 15.9 7.1 15.9 15.9c.1 8.8-7.1 15.9-15.9 15.9zm21.3-58.4c-8.8 0-15.9-7.1-15.9-15.9s7.1-15.9 15.9-15.9 15.9 7.1 15.9 15.9c0 8.7-7.1 15.9-15.9 15.9z"/><path class="st0" d="M212.5 141.2l-7.5 7.5c-4.1 4.1-4.2 10.9 0 15l6.8 6.9 22.6-22.6-6.9-6.9c-4.1-4-10.8-4-15 .1zM118.1 17c-6.7 6.2-12.9 12.9-18.7 19.9-9.8-13.3-20.8-25.7-33-36.9-32.6 30.3-55.8 69.7-55.8 93.5.1 7.9 1.4 15.8 3.9 23.4h40.7c-4.8-6.8-7.5-15-7.5-23.4 0-5.1 5.8-20.1 18.9-38.2.9 1.2 1.7 2.3 2.6 3.5l28.3 39 18-22c4 8 6.3 14.8 6.6 17.7 0 8.4-2.6 16.5-7.4 23.4h40.7c2.5-7.5 3.8-15.4 3.9-23.4.1-17.7-17.2-54.2-41.2-76.5zm126.3 92.4l-7.5 7.5c-4.1 4.1-4.2 10.9 0 15l6.8 6.9 22.6-22.6-6.9-6.9c-4.1-4.1-10.9-4.1-15 .1zm46.9-31.9c-4.1-4.1-10.9-4.1-15 0l-7.5 7.5c-4.1 4.1-4.2 10.9 0 15l6.8 6.9 22.6-22.6-6.9-6.8zM545.7 260c0-4.9-.9-6.3-3.1-6.3-3.4 0-3.8 3.1-3.8 14.7s.4 14.7 3.8 14.7c2.8 0 3.4-2.4 3.4-10.5h10.8v3.2c0 12-7 14.9-14.2 14.9-12.5 0-15.3-6.3-15.3-22.3 0-16.4 3.7-22.3 15.3-22.3 10.1 0 13.9 5.3 13.9 13.6v2.7h-10.8V260zm59.1-13.8c11.4 0 15.3 6.2 15.3 22.3s-3.9 22.3-15.3 22.3-15.3-6.2-15.3-22.3 3.9-22.3 15.3-22.3zm0 36.9c3.4 0 3.8-3.1 3.8-14.7s-.4-14.7-3.8-14.7-3.8 3.1-3.8 14.7c.1 11.6.4 14.7 3.8 14.7zm49.4-36.1h12.4l7.2 26.4h.1V247h10.4v42.8h-12.2l-7.4-26.5h-.1v26.5h-10.4V247zm82.6 13c0-4.9-.9-6.3-3.1-6.3-3.4 0-3.8 3.1-3.8 14.7s.4 14.7 3.8 14.7c2.8 0 3.4-2.4 3.4-10.5h10.8v3.2c0 12-7 14.9-14.2 14.9-12.5 0-15.3-6.3-15.3-22.3 0-16.4 3.7-22.3 15.3-22.3 10.1 0 13.9 5.3 13.9 13.6v2.7h-10.8V260zm45.1-13h25.4v9.1h-14.2v7.3h13.3v8.8h-13.3v8.5h14.8v9.1H782l-.1-42.8zm60 0h17.5c8.5 0 11.8 4.8 11.8 11.4 0 5.7-2.2 9.4-7.3 10.2v.1c5.4.5 7 3.9 7 9.6v3.7c0 2.2 0 5.1.5 5.9.3.5.5 1 1.3 1.3v.6h-11.9c-1.1-2.3-1.1-6.4-1.1-8.2v-2.9c0-4.9-1-6.1-3.7-6.1h-2.9v17.2h-11.2V247zm11.2 18.1h2.2c3.2 0 4.7-2 4.7-5.1 0-3.5-1.4-5-4.7-5h-2.2v10.1zm57.8-8.6h-8.4V247h28v9.5h-8.4v33.4h-11.2v-33.4zm68.8 2.9v-1c0-2.5-1-4.6-3.2-4.6-2.4 0-3.5 1.9-3.5 3.8 0 8.5 18.2 4.3 18.2 20 0 9.1-5.3 13.2-15.2 13.2-9.2 0-14.4-3.2-14.4-12.1v-1.5h10.8v1c0 3.7 1.5 5 3.7 5 2.3 0 3.6-1.8 3.6-4.1 0-8.5-17.5-4.3-17.5-19.4 0-8.6 4.6-13.4 14-13.4 9.7 0 13.9 4 13.9 13.2h-10.4v-.1zm125.9 30.4h-11.9l-1.9-2.5c-3.2 1.9-5.9 3.4-10.4 3.4-7.1 0-13.1-4-13.1-12.1 0-4.9 2.6-9.5 8-12.4-2.2-2.9-4.1-6.5-4.1-9.7 0-5.9 4.8-10 12.1-10 7.4 0 12.2 4 12.2 10 0 4.1-2.8 8-7.4 11l4.9 6.5c.9-1.4 1.3-3.2 1.4-5h9.4c-.2 4.8-1.6 9.5-5 12.8l5.8 8zm-24.2-16.7c-1.7 1.3-2.6 3.1-2.6 4.3 0 2.8 2.3 4.9 4.6 4.9 1.3 0 2.8-.7 3.7-1.4l-5.7-7.8zm2.7-12.1c2.6-2.4 3.5-4 3.5-5.3 0-1.7-1.3-3-3.2-3-1.9 0-3.2 1.3-3.2 3 .1 1.3.9 2.8 2.9 5.3zm99-14h25.4v9.1h-14.2v7.3h13.3v8.8h-13.3v17.6h-11.2V247zm58.8 0h25.4v9.1h-14.2v7.3h13.3v8.8h-13.3v8.5h14.8v9.1H1242l-.1-42.8zm76.7 12.4v-1c0-2.5-1-4.6-3.2-4.6-2.4 0-3.5 1.9-3.5 3.8 0 8.5 18.2 4.3 18.2 20 0 9.1-5.3 13.2-15.2 13.2-9.2 0-14.4-3.2-14.4-12.1v-1.5h10.8v1c0 3.7 1.5 5 3.7 5 2.3 0 3.6-1.8 3.6-4.1 0-8.5-17.5-4.3-17.5-19.4 0-8.6 4.6-13.4 14-13.4 9.7 0 13.9 4 13.9 13.2h-10.4v-.1zm51.2-2.9h-8.4V247h28v9.5h-8.4v33.4h-11.2v-33.4zm51.6-9.5h11.2v42.8h-11.2V247zm42.6 0h11.9l4.5 32.3h.1l4.5-32.3h11.9l-9.2 42.8h-14.4L1464 247zm69.5 0h14l10.4 42.8H1546l-1.1-7.5h-8.9l-1.1 7.5H1523l10.5-42.8zm7 8.8l-3.2 18.2h6.2l-3-18.2zm49.3-8.8h11.2v33.7h13.7v9.1h-24.9V247zm74.5 12.4v-1c0-2.5-1-4.6-3.2-4.6-2.4 0-3.5 1.9-3.5 3.8 0 8.5 18.2 4.3 18.2 20 0 9.1-5.3 13.2-15.2 13.2-9.2 0-14.4-3.2-14.4-12.1v-1.5h10.8v1c0 3.7 1.5 5 3.7 5 2.3 0 3.6-1.8 3.6-4.1 0-8.5-17.5-4.3-17.5-19.4 0-8.6 4.6-13.4 14-13.4 9.7 0 13.9 4 13.9 13.2h-10.4v-.1zm-1149.1-69c-10.4 0-19.1-.9-26.1-2.6-7-1.7-12.5-4.5-16.7-8.4-4.2-3.8-7.1-8.8-8.9-15-1.7-6.2-2.6-13.8-2.6-22.9V96.9c0-8.9.9-16.5 2.6-22.8 1.7-6.3 4.7-11.3 8.9-15.1 4.2-3.8 9.7-6.6 16.7-8.4 7-1.7 15.7-2.6 26.1-2.6H614v27.4h-97.3c-4.9 0-8.9.4-12 1.1-3.1.8-5.6 2.1-7.4 3.9s-3.1 4.2-3.8 7.2c-.7 3-1 6.7-1 11v41.8c0 4.5.3 8.1 1 11.1.7 2.9 1.9 5.3 3.8 7.1 1.8 1.8 4.3 3.1 7.5 3.8s7.2 1 12.1 1H614v27.2h-98.8v-.2zm264.1-32.8h-98.6l-20.3 32.8h-36.6l82.7-131.6c2.5-4 5.5-7.4 9-10s8.5-4 15-4c6.4 0 11.3 1.3 14.8 4 3.5 2.6 6.5 6 9 10l82.3 131.6h-36.8l-20.5-32.8zm-83.8-24.4h68.9L730 77l-34.5 56.2zm200.7 57.2c-10.4 0-19.1-.9-26.1-2.6-7-1.7-12.5-4.5-16.7-8.4-4.2-3.8-7.1-8.8-8.9-15-1.7-6.2-2.6-13.8-2.6-22.9V48h31.5v92.3c0 4.2.4 7.7 1.1 10.5.8 2.9 2.1 5.2 4.1 7.1 1.9 1.9 4.6 3.2 7.8 4.1 3.3.8 7.4 1.3 12.4 1.3h84.6v27.2h-87.2v-.1zm248.6-32.8h-98.6l-20.3 32.8h-36.6L1072 58.8c2.5-4 5.5-7.4 9-10s8.5-4 15-4c6.4 0 11.3 1.3 14.8 4 3.5 2.6 6.5 6 9 10l82.3 131.6h-36.8l-20.5-32.8zm-83.7-24.4h68.9L1095.5 77l-34.4 56.2zm200.3 57.2c-10.4 0-19.2-.9-26.1-2.6-7-1.7-12.5-4.5-16.7-8.4-4.2-3.8-7.1-8.8-8.9-15-1.7-6.2-2.6-13.8-2.6-22.9V96.9c0-8.9.9-16.5 2.6-22.8 1.7-6.3 4.7-11.3 8.9-15.1 4.2-3.8 9.7-6.6 16.7-8.4 7-1.7 15.7-2.6 26.1-2.6h98.8v27.4h-97.3c-4.9 0-8.9.4-12 1.1-3.1.8-5.6 2.1-7.4 3.9s-3.1 4.2-3.8 7.2c-.7 3-1 6.7-1 11v41.8c0 4.5.3 8.1 1 11.1.7 2.9 1.9 5.3 3.8 7.1 1.8 1.8 4.3 3.1 7.5 3.8s7.2 1 12.1 1h97.1v27.2h-98.8v-.2zm264-32.8h-98.6l-20.3 32.8H1370l82.7-131.6c2.5-4 5.5-7.4 9-10s8.5-4 15-4c6.4 0 11.3 1.3 14.8 4 3.5 2.6 6.5 6 9 10l82.3 131.6H1546l-20.6-32.8zm-83.7-24.4h68.9L1476.1 77l-34.4 56.2zm151 57.2v-26.9h108.2c5.7 0 9.8-.8 12.3-2.4 2.5-1.6 3.8-4.8 3.8-9.7v-7.7c0-4.5-1.3-7.6-3.8-9.5s-6.5-2.8-12.1-2.8h-67.9c-7.9 0-14.5-.7-19.7-2.2s-9.4-3.7-12.4-6.7c-3.1-3-5.2-6.8-6.4-11.3-1.2-4.5-1.8-9.9-1.8-16v-7.1c0-7.2.8-13.4 2.3-18.6s3.9-9.3 7.1-12.4c3.2-3.1 7.4-5.4 12.5-6.9 5.2-1.5 11.3-2.2 18.4-2.2h44.3v26.9h-41.4c-4.9 0-8.5.9-10.8 2.8s-3.4 5.7-3.4 11.4v4.6c0 4.5 1 7.6 3.1 9.5s5.7 2.8 10.9 2.8h66.6c7.9 0 14.7.7 20.2 2s10 3.4 13.5 6.4c3.5 2.9 6 6.7 7.5 11.3 1.5 4.6 2.3 10.1 2.3 16.5v11.3c0 6.7-.8 12.4-2.3 17-1.5 4.7-4 8.5-7.5 11.4s-8 5.1-13.5 6.5-12.2 2.1-20.2 2.1h-109.8v-.1z"/></svg>