<svg xmlns="http://www.w3.org/2000/svg" viewBox="0 0 24 24"><circle cx="12" cy="12" r="12" fill="#22222e"/><path d="M22.3 7.9l-.9-.9c-.2-.2-.4-.3-.7-.3h-1.5c-.5 0-1 .2-1.4.6L9 16.2c-.3.3-.8.3-1.1 0-.3-.3-.3-.7-.1-1l1.5-2.5h.7c.3 0 .5-.2.5-.5v-.5c0-.3-.2-.5-.5-.5H3c-.3 0-.5.2-.5.5v.5c0 .3.2.5.5.5-.2 1-.5 2.2-.5 3 0 1.9 1.1 3.6 2.7 4.4.7.4 1.5.6 2.3.6 2.4 0 3.6-1.6 4-2L19.2 9c.2-.2.5-.4.8-.4h2c.4.2.6-.4.3-.7zM5.1 17c-.4 0-.8-.3-.8-.8 0-.4.3-.8.8-.8.4 0 .8.3.8.8s-.3.8-.8.8zm1-2.7c-.4 0-.8-.3-.8-.8 0-.4.3-.8.8-.8s.8.3.8.8c0 .4-.3.8-.8.8z" fill="#38d6c7"/><path d="M12.4 11.4l-.4.4c-.2.2-.2.5 0 .7l.3.3 1.1-1.1-.3-.3c-.2-.2-.5-.2-.7 0zM8 5.5c-.4.3-.7.7-.9 1-.5-.6-1-1.2-1.6-1.7C4 6.2 2.9 8 2.9 9.2c0 .4.1.7.2 1.1H5c-.2-.4-.4-.7-.4-1.1 0-.2.3-.9.9-1.8 0 .1.1.1.1.2L7 9.4l.8-1c.2.3.3.6.3.8 0 .4-.1.8-.3 1.1h1.9c.1-.4.2-.7.2-1.1 0-.9-.8-2.6-1.9-3.7zm5.9 4.4l-.4.4c-.2.2-.2.5 0 .7l.3.3 1.1-1.1-.3-.3c-.2-.2-.5-.2-.7 0zm2.2-1.5c-.2-.2-.5-.2-.7 0l-.4.4c-.2.2-.2.5 0 .7l.3.3 1.1-1.1-.3-.3z" fill="#fff"/></svg>